<svg id="Ck-8gKLo-S" viewBox="0 0 370.00000000000006 72" height="72" width="370.00000000000006" style="width: 370px; height: 72px; position: absolute; top: 50%; left: 50%; transform: translate(-50%, -50%) scale(0.477838); z-index: 0; cursor: pointer; overflow: visible;"><defs id="SvgjsDefs1148"></defs><g id="SvgjsG1149" featurekey="HKaMnE-0" transform="matrix(0.5617977528089888,0,0,0.5617977528089888,2.9101123595505616,18.91011235955056)" fill="#111111"><g xmlns="http://www.w3.org/2000/svg"><g><path fill="#111111" d="M81.464,18.536C75.668,12.74,68.419,8.667,60.5,6.756c-1.072-0.257-2.153,0.4-2.413,1.473L52,33.3V7.5    c0-1.104-0.896-2-2-2c-8.192,0-16.202,2.245-23.165,6.495c-3.011,1.844-5.803,4.044-8.299,6.542    c-5.796,5.795-9.87,13.045-11.778,20.956C5.923,42.884,5.5,46.42,5.5,50c0,8.192,2.245,16.202,6.493,23.162    c0.377,0.618,1.035,0.958,1.709,0.958c0.354,0,0.714-0.095,1.039-0.292l22.02-13.417L18.536,78.636    c-0.781,0.781-0.781,2.047,0,2.828c5.795,5.796,13.045,9.87,20.956,11.778C42.884,94.077,46.42,94.5,50,94.5    c8.192,0,16.202-2.245,23.162-6.493c0.942-0.575,1.24-1.805,0.666-2.748l-13.417-22.02l18.225,18.225    c0.391,0.391,0.902,0.586,1.414,0.586s1.023-0.195,1.414-0.586c5.796-5.795,9.87-13.045,11.78-20.965    c0.259-1.072-0.4-2.152-1.473-2.412L66.701,52H92.5c1.104,0,2-0.896,2-2c0-8.192-2.245-16.202-6.495-23.165    C86.162,23.825,83.961,21.032,81.464,18.536z M50,46.5c0.146,0,0.286-0.017,0.423-0.047c0.131,0.064,0.267,0.117,0.411,0.152    c0.622,0.149,1.19,0.467,1.643,0.919c0.2,0.2,0.358,0.403,0.519,0.678C53.326,48.729,53.5,49.351,53.5,50    c0,0.146,0.017,0.286,0.047,0.423c-0.064,0.131-0.117,0.267-0.152,0.411c-0.149,0.622-0.467,1.19-0.919,1.643    c-0.101,0.101-0.188,0.21-0.263,0.326c-0.144,0.049-0.284,0.11-0.415,0.193c-0.763,0.479-1.714,0.64-2.631,0.4    c-0.622-0.149-1.19-0.467-1.643-0.919c-0.101-0.101-0.211-0.188-0.326-0.263c-0.049-0.144-0.11-0.284-0.192-0.415    C46.675,51.271,46.5,50.649,46.5,50c0-0.291,0.031-0.549,0.105-0.833c0.149-0.622,0.467-1.19,0.919-1.643    c0.201-0.201,0.403-0.358,0.678-0.519C48.729,46.674,49.351,46.5,50,46.5z M14.409,69.346C11.192,63.433,9.5,56.786,9.5,50    c0-3.258,0.384-6.472,1.145-9.561c1.738-7.204,5.444-13.8,10.72-19.075c2.274-2.274,4.817-4.279,7.557-5.957    C34.687,11.889,41.245,9.881,48,9.549v33.219c-0.668,0.183-1.297,0.457-1.86,0.811c-0.513,0.296-0.999,0.672-1.444,1.118    c-0.974,0.975-1.659,2.198-1.97,3.496C42.574,48.77,42.5,49.362,42.5,50c0,0.703,0.097,1.394,0.286,2.056L14.409,69.346z M50,90.5    c-3.258,0-6.472-0.384-9.561-1.145c-6.559-1.582-12.613-4.796-17.626-9.34l23.489-23.489c0.596,0.338,1.233,0.591,1.89,0.748    c1.215,0.32,2.603,0.301,3.864-0.06l17.29,28.377C63.433,88.808,56.786,90.5,50,90.5z M80.015,77.187l-23.49-23.49    c0.008-0.015,0.017-0.03,0.025-0.045l32.288,7.838C87.125,67.306,84.11,72.669,80.015,77.187z M57.232,48    c-0.184-0.668-0.458-1.298-0.812-1.862c-0.297-0.514-0.673-0.999-1.117-1.443c-0.493-0.493-1.049-0.911-1.652-1.246l7.839-32.288    c6.451,1.901,12.345,5.403,17.145,10.204c2.274,2.274,4.279,4.817,5.957,7.557c3.518,5.765,5.526,12.323,5.858,19.078H57.232z"></path></g></g></g><g id="SvgjsG1150" featurekey="J3GnXt-0" transform="matrix(1.9904458437517023,0,0,1.9904458437517023,66.37738917180776,19.092395652136055)" fill="#111111"><path d="M4.34 5.84 l7.8 11.64 l0.04 0 l0 -11.64 l1.92 0 l0 14.16 l-2.44 0 l-7.88 -11.64 l-0.04 0 l0 11.64 l-1.92 0 l0 -14.16 l2.52 0 z M21.08 10.28 c1.2 0 2.15 0.27328 2.85 0.81994 s1.07 1.3067 1.11 2.28 l0 5.08 c0 0.48 0.02666 0.99334 0.08 1.54 l-1.6 0 c-0.04 -0.42666 -0.06 -0.90666 -0.06 -1.44 l-0.04 0 c-0.41334 0.61334 -0.89 1.0467 -1.43 1.3 s-1.17 0.38 -1.89 0.38 c-0.97334 0 -1.7633 -0.26 -2.37 -0.78 s-0.91 -1.2067 -0.91 -2.06 c0 -1.08 0.45334 -1.8967 1.36 -2.45 s2.1866 -0.83 3.84 -0.83 l1.34 0 l0 -0.34 c0 -0.64 -0.21 -1.1433 -0.63 -1.51 s-0.97 -0.55 -1.65 -0.55 c-0.50666 0 -0.95 0.07666 -1.33 0.23 s-0.83 0.43668 -1.35 0.85002 l-1.08 -1.12 c1.0267 -0.90666 2.28 -1.3733 3.76 -1.4 z M18.62 17.259999999999998 c0 1.0267 0.68002 1.54 2.04 1.54 c0.81334 0 1.4633 -0.24334 1.95 -0.73 s0.73666 -1.19 0.75 -2.11 l0 -0.52 l-1.02 0 c-1.1733 0 -2.0866 0.15 -2.74 0.45 s-0.98 0.75666 -0.98 1.37 z M28.7 5.800000000000001 c0.36 0 0.67002 0.13002 0.93002 0.39002 s0.39 0.57 0.39 0.93 c0 0.37334 -0.13334 0.68668 -0.4 0.94002 s-0.57332 0.38 -0.91998 0.38 c-0.37334 0 -0.68668 -0.12666 -0.94002 -0.38 s-0.38 -0.56668 -0.38 -0.94002 s0.13334 -0.68668 0.4 -0.94002 s0.57332 -0.38 0.91998 -0.38 z M29.6 10.52 l0 9.48 l-1.8 0 l0 -9.48 l1.8 0 z M33.5 5.800000000000001 c0.36 0 0.67002 0.13002 0.93002 0.39002 s0.39 0.57 0.39 0.93 c0 0.37334 -0.13334 0.68668 -0.4 0.94002 s-0.57332 0.38 -0.91998 0.38 c-0.37334 0 -0.68668 -0.12666 -0.94002 -0.38 s-0.38 -0.56668 -0.38 -0.94002 s0.13334 -0.68668 0.4 -0.94002 s0.57332 -0.38 0.91998 -0.38 z M34.4 10.52 l0.000019531 11.02 c0 2.1734 -0.96666 3.26 -2.9 3.26 c-0.44 0 -0.82666 -0.06 -1.16 -0.18 l0.2 -1.66 c0.32 0.10666 0.56666 0.16 0.74 0.16 c0.50666 0 0.85332 -0.15666 1.04 -0.47 s0.28 -0.74334 0.28 -1.29 l0 -10.84 l1.8 0 z M41.06 10.28 c1.2 0 2.15 0.27328 2.85 0.81994 s1.07 1.3067 1.11 2.28 l0 5.08 c0 0.48 0.02666 0.99334 0.08 1.54 l-1.6 0 c-0.04 -0.42666 -0.06 -0.90666 -0.06 -1.44 l-0.04 0 c-0.41334 0.61334 -0.89 1.0467 -1.43 1.3 s-1.17 0.38 -1.89 0.38 c-0.97334 0 -1.7633 -0.26 -2.37 -0.78 s-0.91 -1.2067 -0.91 -2.06 c0 -1.08 0.45334 -1.8967 1.36 -2.45 s2.1866 -0.83 3.84 -0.83 l1.34 0 l0 -0.34 c0 -0.64 -0.21 -1.1433 -0.63 -1.51 s-0.97 -0.55 -1.65 -0.55 c-0.50666 0 -0.95 0.07666 -1.33 0.23 s-0.83 0.43668 -1.35 0.85002 l-1.08 -1.12 c1.0267 -0.90666 2.28 -1.3733 3.76 -1.4 z M38.6 17.259999999999998 c0 1.0267 0.68002 1.54 2.04 1.54 c0.81334 0 1.4633 -0.24334 1.95 -0.73 s0.73666 -1.19 0.75 -2.11 l0 -0.52 l-1.02 0 c-1.1733 0 -2.0866 0.15 -2.74 0.45 s-0.98 0.75666 -0.98 1.37 z M60.160000000000004 5.48 c1 0 1.9367 0.18664 2.81 0.55998 s1.59 0.92 2.15 1.64 l-1.6 1.22 c-0.86666 -1.08 -2.0066 -1.62 -3.42 -1.62 c-1.5333 0 -2.7966 0.54666 -3.79 1.64 s-1.49 2.4666 -1.49 4.12 c0 1.6 0.49 2.92 1.47 3.96 s2.25 1.56 3.81 1.56 s2.7934 -0.63334 3.7 -1.9 l1.62 1.22 c-0.56 0.74666 -1.3067 1.3467 -2.24 1.8 s-1.9733 0.68 -3.12 0.68 c-1.36 0 -2.5934 -0.33 -3.7 -0.99 s-1.98 -1.5667 -2.62 -2.72 s-0.96 -2.3634 -0.96 -3.63 c0 -2.1866 0.68666 -3.99 2.06 -5.41 s3.1466 -2.13 5.32 -2.13 z M71.86 10.28 c1.4 0 2.5866 0.48338 3.56 1.45 s1.4667 2.1434 1.48 3.53 c0 1.4 -0.48666 2.5734 -1.46 3.52 s-2.1666 1.4333 -3.58 1.46 c-1.3867 0 -2.5666 -0.48 -3.54 -1.44 s-1.4733 -2.14 -1.5 -3.54 c0 -1.3733 0.48334 -2.54 1.45 -3.5 s2.1634 -1.4533 3.59 -1.48 z M68.74 15.26 c0 0.97334 0.28664 1.7633 0.85998 2.37 s1.3267 0.91666 2.26 0.93 c0.94666 0 1.7 -0.30334 2.26 -0.91 s0.84666 -1.4033 0.86 -2.39 c0 -0.97334 -0.28 -1.7633 -0.84 -2.37 s-1.3267 -0.91666 -2.3 -0.93 c-0.94666 0 -1.7 0.31334 -2.26 0.94 s-0.84 1.4133 -0.84 2.36 z M83.92 10.28 c1.3733 0 2.36 0.58666 2.96 1.76 c0.30666 -0.56 0.72666 -0.99334 1.26 -1.3 s1.1133 -0.46 1.74 -0.46 c2.3866 0 3.5866 1.3733 3.6 4.12 l0 5.6 l-1.8 0 l0 -5.38 c0 -0.93334 -0.16666 -1.61 -0.5 -2.03 s-0.84668 -0.63 -1.54 -0.63 c-0.81334 0 -1.42 0.24666 -1.82 0.74 s-0.6 1.1733 -0.6 2.04 l0 5.26 l-1.8 0 l0 -5.1 c0 -1.12 -0.16 -1.89 -0.48 -2.31 s-0.82666 -0.63 -1.52 -0.63 c-0.74666 0 -1.3433 0.28666 -1.79 0.86 s-0.67 1.3 -0.67 2.18 l0 5 l-1.8 0 l0 -9.48 l1.68 0 l0 1.48 l0.04 0 c0.2 -0.46666 0.59666 -0.87 1.19 -1.21 s1.21 -0.51 1.85 -0.51 z M101.36 10.28 c1.4 0 2.5434 0.45998 3.43 1.38 s1.3433 2.12 1.37 3.6 c0 1.48 -0.45334 2.6766 -1.36 3.59 s-2.06 1.3767 -3.46 1.39 c-0.69334 0 -1.34 -0.14666 -1.94 -0.44 s-1.0533 -0.68 -1.36 -1.16 l-0.04 0 l0 7 l-1.8 0 l0 -15.12 l1.8 0 l0 1.36 l0.04 0 c0.36 -0.50666 0.83334 -0.9 1.42 -1.18 s1.22 -0.42 1.9 -0.42 z M98 15.26 c0 0.98666 0.28998 1.7833 0.86998 2.39 s1.33 0.91 2.25 0.91 c0.96 0 1.7167 -0.30334 2.27 -0.91 s0.83668 -1.4033 0.85002 -2.39 c0 -0.98666 -0.28334 -1.78 -0.85 -2.38 s-1.33 -0.90666 -2.29 -0.92 c-0.94666 0 -1.7 0.31 -2.26 0.93 s-0.84 1.41 -0.84 2.37 z M112.22 10.28 c1.2 0 2.15 0.27328 2.85 0.81994 s1.07 1.3067 1.11 2.28 l0 5.08 c0 0.48 0.02666 0.99334 0.08 1.54 l-1.6 0 c-0.04 -0.42666 -0.06 -0.90666 -0.06 -1.44 l-0.04 0 c-0.41334 0.61334 -0.89 1.0467 -1.43 1.3 s-1.17 0.38 -1.89 0.38 c-0.97334 0 -1.7633 -0.26 -2.37 -0.78 s-0.91 -1.2067 -0.91 -2.06 c0 -1.08 0.45334 -1.8967 1.36 -2.45 s2.1866 -0.83 3.84 -0.83 l1.34 0 l0 -0.34 c0 -0.64 -0.21 -1.1433 -0.63 -1.51 s-0.97 -0.55 -1.65 -0.55 c-0.50666 0 -0.95 0.07666 -1.33 0.23 s-0.83 0.43668 -1.35 0.85002 l-1.08 -1.12 c1.0267 -0.90666 2.28 -1.3733 3.76 -1.4 z M109.76 17.259999999999998 c0 1.0267 0.68002 1.54 2.04 1.54 c0.81334 0 1.4633 -0.24334 1.95 -0.73 s0.73666 -1.19 0.75 -2.11 l0 -0.52 l-1.02 0 c-1.1733 0 -2.0866 0.15 -2.74 0.45 s-0.98 0.75666 -0.98 1.37 z M123.75999999999999 10.28 c1.0667 0 1.9033 0.32 2.51 0.96 s0.91666 1.5 0.93 2.58 l0 6.18 l-1.8 0 l0 -5.66 c0 -0.73334 -0.19 -1.3133 -0.57 -1.74 s-0.91 -0.64 -1.59 -0.64 c-0.84 0 -1.49 0.28 -1.95 0.84 s-0.69 1.3067 -0.69 2.24 l0 4.96 l-1.8 0 l0 -9.48 l1.8 0 l0 1.46 l0.04 0 c0.25334 -0.53334 0.66334 -0.95 1.23 -1.25 s1.1967 -0.45 1.89 -0.45 z M130.96 5.800000000000001 c0.36 0 0.67002 0.13002 0.93002 0.39002 s0.39 0.57 0.39 0.93 c0 0.37334 -0.13334 0.68668 -0.4 0.94002 s-0.57332 0.38 -0.91998 0.38 c-0.37334 0 -0.68668 -0.12666 -0.94002 -0.38 s-0.38 -0.56668 -0.38 -0.94002 s0.13334 -0.68668 0.4 -0.94002 s0.57332 -0.38 0.91998 -0.38 z M131.86 10.52 l0 9.48 l-1.8 0 l0 -9.48 l1.8 0 z M139.06 10.28 c1.4533 0 2.5834 0.45664 3.39 1.37 s1.2167 2.17 1.23 3.77 l0 0.5 l-7.6 0 c0 0.77334 0.31 1.4233 0.93 1.95 s1.3767 0.79666 2.27 0.81 c0.98666 0 1.8533 -0.47334 2.6 -1.42 l1.36 1.04 c-1.0133 1.2933 -2.4134 1.94 -4.2 1.94 c-1.4533 0 -2.6234 -0.46334 -3.51 -1.39 s-1.3433 -2.1234 -1.37 -3.59 c0 -1.4133 0.45666 -2.59 1.37 -3.53 s2.09 -1.4233 3.53 -1.45 z M141.76000000000002 14.48 c-0.02666 -0.89334 -0.28 -1.5767 -0.76 -2.05 s-1.14 -0.71 -1.98 -0.71 c-0.56 0 -1.0633 0.13666 -1.51 0.41 s-0.79666 0.62668 -1.05 1.06 s-0.38 0.86334 -0.38 1.29 l5.68 0 z M149.04000000000002 10.28 c0.72 0 1.3633 0.13338 1.93 0.40004 s1.0033 0.65332 1.31 1.16 l-1.4 1.06 c-0.53334 -0.62666 -1.18 -0.94 -1.94 -0.94 c-0.45334 0 -0.83 0.1 -1.13 0.3 s-0.45 0.45334 -0.45 0.76 c0 0.66666 0.62 1.12 1.86 1.36 c1.2133 0.22666 2.07 0.56 2.57 1 s0.75 1.0667 0.75 1.88 c0 0.92 -0.35 1.6433 -1.05 2.17 s-1.6367 0.79666 -2.81 0.81 c-0.88 0 -1.6033 -0.13666 -2.17 -0.41 s-1.0567 -0.69668 -1.47 -1.27 l1.36 -1.12 c0.72 0.74666 1.4867 1.12 2.3 1.12 c0.53334 0 0.98668 -0.10666 1.36 -0.32 s0.56 -0.50668 0.56 -0.88002 c0 -0.65334 -0.6 -1.1067 -1.8 -1.36 c-1.3333 -0.26666 -2.23 -0.62332 -2.69 -1.07 s-0.69 -1.0233 -0.69 -1.73 c0 -0.88 0.34 -1.5833 1.02 -2.11 s1.54 -0.79666 2.58 -0.81 z"></path></g></svg>
