<svg xmlns="http://www.w3.org/2000/svg" version="1.1" xmlns:xlink="http://www.w3.org/1999/xlink" xmlns:svgjs="http://svgjs.dev/svgjs" width="1500" height="1500" viewBox="0 0 1500 1500"><rect width="1500" height="1500" fill="#ffffff"></rect><g transform="matrix(0.6666666666666666,0,0,0.6666666666666666,249.39436519522388,603.9731667548928)"><svg viewBox="0 0 396 115" data-background-color="#ffffff" preserveAspectRatio="xMidYMid meet" height="435" width="1500" xmlns="http://www.w3.org/2000/svg" xmlns:xlink="http://www.w3.org/1999/xlink"><g id="tight-bounds" transform="matrix(1,0,0,1,0.24008861730862918,0.40727269507732444)"><svg viewBox="0 0 395.52 114.18553481117327" height="114.18553481117327" width="395.52"><g><svg viewBox="0 0 395.52 114.18553481117327" height="114.18553481117327" width="395.52"><g><svg viewBox="0 0 395.52 114.18553481117327" height="114.18553481117327" width="395.52"><g id="textblocktransform"><svg viewBox="0 0 395.52 114.18553481117327" height="114.18553481117327" width="395.52" id="textblock"><g><svg viewBox="0 0 395.52 87.99339104126162" height="87.99339104126162" width="395.52"><path d="M394.594 18.873C392.735 9.739 387.435 7.2 387.435 7.2 371.165-2.208 350.86-0.18 332.619 1.172 300.414 1.227 268.339 3.236 236.208 4.314 168.767 4.478 100.749 1.775 33.643 8.442 27.339 10.488-6.54 8.844 1.121 20.042 3.129 24.7 10.456 29.87 10.232 34.144 11.236 34.893 12.631 33.176 13.226 34.254 15.309 37.159 18.711 35.788 21.501 37.506 17.614 42.091 20.403 45.909 23.062 49.909 18.377 50.95 12.371 50.457 9.675 53.91 9.396 56.412 7.89 55.937 6.235 55.828 5.026 55.755 2.59 56.029 2.999 56.814 4.394 59.5-1.594 61.052 2.162 63.683-0.422 66.532 3.948 68.999 3.353 72.086 3.278 72.707 3.687 73.237 4.338 73.383 7.22 74.168 3.018 75.703 3.464 77.365 33.029 88.727 65.104 80.872 95.394 86.097 103.259 82.443 97.346 87.394 100.489 86.627 102.943 85.731 104.728 89.44 107.499 87.339 107.927 86.736 107.276 85.311 108.8 85.585 109.6 85.731 110.307 85.695 110.418 84.855 110.586 83.594 109.117 84.38 108.726 83.722 112.947 80.397 111.906 88.307 115.866 87.978 115.68 87.01 114.528 85.622 116.889 85.805 119.232 84.416 119.306 83.265 121.389 86.389 121.463 87.065 121.835 87.54 122.43 87.869 128.938 84.471 135.409 89.074 142.233 87.54 146.417 85.859 150.433 88.453 154.672 87.814 156.16 87.302 157.666 86.389 159.098 87.924 176.632 88.252 195.319 86.882 211.943 87.978 256.364 85.932 303.836 88.819 350.674 86.115 361.719 85.074 373.192 83.594 383.958 82.407 383.958 82.407 392.679 79.155 392.679 64.541S394.538 51.754 394.817 40.118C395.096 28.482 396.398 28.007 394.538 18.873Z" opacity="1" fill="#006f42" data-fill-palette-color="tertiary"></path><g transform="matrix(1,0,0,1,55.76832,26.068561146666667)"><svg width="283.98335999999995" viewBox="4.1 -32.35 331.82 41.900000000000006" height="35.856268747928276" data-palette-color="#ffffff"><path d="M4.1 0L4.1-30.7 7.65-30.7 23.65-4.8 24.05-4.9 23.6-14.4 23.6-30.7 26.75-30.7 26.75 0 23.2 0 7.2-25.9 6.85-25.8 7.25-16.3 7.25 0 4.1 0ZM39.8 0.45Q36.55 0.45 34.82-1.13 33.1-2.7 33.1-5.4L33.1-5.4Q33.1-9.15 35.85-11.03 38.6-12.9 43.55-12.9L43.55-12.9Q45.2-12.9 47.4-12.7L47.4-12.7 47.4-16.1Q47.4-19.1 46.2-20.23 45-21.35 42-21.35L42-21.35Q39.9-21.35 38.15-21.1L38.15-21.1 37.65-17.5 35.4-17.5Q34.85-19.05 34.85-20.55L34.85-20.55 34.85-21.5Q36.45-22.4 38.77-23.1 41.1-23.8 43.2-23.8L43.2-23.8Q46.65-23.8 48.55-21.93 50.45-20.05 50.45-16.55L50.45-16.55 50.45 0 47.85 0 47.65-3.3 47.25-3.3Q45.95-1.55 44.02-0.55 42.1 0.45 39.8 0.45L39.8 0.45ZM40.3-2Q42.5-2 44.4-3.05 46.3-4.1 47.55-5.95L47.55-5.95 47.55-10.4Q45.3-10.8 42.55-10.8L42.55-10.8Q39.25-10.8 37.4-10.25L37.4-10.25Q36.8-9.1 36.52-8.08 36.25-7.05 36.25-5.85L36.25-5.85Q36.25-3.7 37.27-2.85 38.3-2 40.3-2L40.3-2ZM58.09-27.7L58.09-32.35 61.24-32.35 61.24-27.7 58.09-27.7ZM58.14 0L58.14-23.35 61.09-23.35 61.09 0 58.14 0ZM68.99-27.7L68.99-32.35 72.14-32.35 72.14-27.7 68.99-27.7ZM65.79 9.55Q63.39 9.55 61.39 8.9L61.39 8.9 62.09 6.3Q64.09 6.85 65.84 6.85L65.84 6.85Q67.34 6.85 68.69 6.4L68.69 6.4Q69.09 5.25 69.09 3.05L69.09 3.05 69.09-23.4 72.04-23.4 72.04 3.25Q72.04 6.3 70.42 7.93 68.79 9.55 65.79 9.55L65.79 9.55ZM84.89 0.45Q81.64 0.45 79.91-1.13 78.19-2.7 78.19-5.4L78.19-5.4Q78.19-9.15 80.94-11.03 83.69-12.9 88.64-12.9L88.64-12.9Q90.29-12.9 92.49-12.7L92.49-12.7 92.49-16.1Q92.49-19.1 91.29-20.23 90.09-21.35 87.09-21.35L87.09-21.35Q84.99-21.35 83.24-21.1L83.24-21.1 82.74-17.5 80.49-17.5Q79.94-19.05 79.94-20.55L79.94-20.55 79.94-21.5Q81.54-22.4 83.86-23.1 86.19-23.8 88.29-23.8L88.29-23.8Q91.74-23.8 93.64-21.93 95.54-20.05 95.54-16.55L95.54-16.55 95.54 0 92.94 0 92.74-3.3 92.34-3.3Q91.04-1.55 89.11-0.55 87.19 0.45 84.89 0.45L84.89 0.45ZM85.39-2Q87.59-2 89.49-3.05 91.39-4.1 92.64-5.95L92.64-5.95 92.64-10.4Q90.39-10.8 87.64-10.8L87.64-10.8Q84.34-10.8 82.49-10.25L82.49-10.25Q81.89-9.1 81.61-8.08 81.34-7.05 81.34-5.85L81.34-5.85Q81.34-3.7 82.36-2.85 83.39-2 85.39-2L85.39-2ZM130.03 0.45Q117.03 0.45 117.03-14.55L117.03-14.55Q117.03-22.1 120.21-26.65 123.39-31.2 129.78-31.2L129.78-31.2Q132.34-31.2 134.71-30.65 137.09-30.1 138.44-29.25L138.44-29.25 138.44-26.95Q138.44-24.95 137.88-23.6L137.88-23.6 135.84-23.6 135.34-27.7Q133.03-28.25 129.74-28.25L129.74-28.25Q126.64-28.25 123.53-27.4L123.53-27.4Q120.19-22.4 120.19-14.75L120.19-14.75Q120.19-8.4 122.56-5.45 124.94-2.5 130.13-2.5L130.13-2.5Q132.49-2.5 134.61-3.05 136.74-3.6 138.19-4.55L138.19-4.55 139.63-2.2Q138.03-0.9 135.56-0.23 133.09 0.45 130.03 0.45L130.03 0.45ZM154.03 0.45Q149.18 0.45 146.93-2.68 144.68-5.8 144.68-11.45L144.68-11.45Q144.68-17.35 147.08-20.68 149.48-24 155.18-24L155.18-24Q159.98-24 162.26-20.78 164.53-17.55 164.53-11.85L164.53-11.85Q164.53-6 162.13-2.78 159.73 0.45 154.03 0.45L154.03 0.45ZM154.88-2.2Q157.88-2.2 159.98-3.25L159.98-3.25Q161.53-6 161.53-11.25L161.53-11.25Q161.53-16.55 159.96-18.93 158.38-21.3 154.33-21.3L154.33-21.3Q151.18-21.3 149.23-20.25L149.23-20.25Q148.53-18.95 148.11-16.78 147.68-14.6 147.68-12L147.68-12Q147.68-8.5 148.33-6.38 148.98-4.25 150.56-3.23 152.13-2.2 154.88-2.2L154.88-2.2ZM171.28 0L171.28-23.4 173.78-23.4 174.08-20 174.43-20Q178.33-23.8 182.73-23.8L182.73-23.8Q185.48-23.8 186.91-22.93 188.33-22.05 188.68-20L188.68-20 189.03-20Q192.83-23.8 197.38-23.8L197.38-23.8Q200.58-23.8 202.08-22.6 203.58-21.4 203.58-18.3L203.58-18.3 203.58 0 200.53 0 200.53-20.5Q198.88-21.05 196.88-21.05L196.88-21.05Q194.63-21.05 192.56-20.23 190.48-19.4 188.93-17.85L188.93-17.85 188.93 0 185.93 0 185.93-20.5Q184.28-21.05 182.28-21.05L182.28-21.05Q179.98-21.05 177.91-20.2 175.83-19.35 174.28-17.8L174.28-17.8 174.28 0 171.28 0ZM211.38 9.35L211.38-23.4 214.03-23.4 214.23-20.05 214.63-20.05Q216.38-21.85 218.28-22.83 220.18-23.8 222.48-23.8L222.48-23.8Q226.78-23.8 228.8-20.75 230.83-17.7 230.83-11.75L230.83-11.75Q230.83-6.4 228.73-3.08 226.63 0.25 222.13 0.25L222.13 0.25Q220.03 0.25 218.05-0.6 216.08-1.45 214.58-2.95L214.58-2.95 214.23-2.95 214.38 0.9 214.38 9.35 211.38 9.35ZM221.43-2.4Q224.78-2.4 226.23-4.8 227.68-7.2 227.68-11.85L227.68-11.85Q227.68-16.75 226.3-18.95 224.93-21.15 221.53-21.15L221.53-21.15Q219.38-21.15 217.53-20 215.68-18.85 214.43-17.1L214.43-17.1 214.43-5.55Q217.38-2.4 221.43-2.4L221.43-2.4ZM242.52 0.45Q239.27 0.45 237.55-1.13 235.82-2.7 235.82-5.4L235.82-5.4Q235.82-9.15 238.57-11.03 241.32-12.9 246.27-12.9L246.27-12.9Q247.92-12.9 250.13-12.7L250.13-12.7 250.13-16.1Q250.13-19.1 248.92-20.23 247.72-21.35 244.72-21.35L244.72-21.35Q242.63-21.35 240.88-21.1L240.88-21.1 240.38-17.5 238.13-17.5Q237.57-19.05 237.57-20.55L237.57-20.55 237.57-21.5Q239.17-22.4 241.5-23.1 243.82-23.8 245.92-23.8L245.92-23.8Q249.38-23.8 251.27-21.93 253.17-20.05 253.17-16.55L253.17-16.55 253.17 0 250.57 0 250.38-3.3 249.97-3.3Q248.67-1.55 246.75-0.55 244.82 0.45 242.52 0.45L242.52 0.45ZM243.02-2Q245.22-2 247.13-3.05 249.02-4.1 250.27-5.95L250.27-5.95 250.27-10.4Q248.02-10.8 245.27-10.8L245.27-10.8Q241.97-10.8 240.13-10.25L240.13-10.25Q239.52-9.1 239.25-8.08 238.97-7.05 238.97-5.85L238.97-5.85Q238.97-3.7 240-2.85 241.02-2 243.02-2L243.02-2ZM260.82 0L260.82-23.4 263.37-23.4 263.62-19.9 263.97-19.9Q267.87-23.8 272.62-23.8L272.62-23.8Q275.77-23.8 277.3-22.53 278.82-21.25 278.82-18.3L278.82-18.3 278.82 0 275.82 0 275.82-20.5Q274.27-21.05 272.07-21.05L272.07-21.05Q269.57-21.05 267.45-20.13 265.32-19.2 263.82-17.6L263.82-17.6 263.82 0 260.82 0ZM286.62-27.7L286.62-32.35 289.77-32.35 289.77-27.7 286.62-27.7ZM286.67 0L286.67-23.35 289.62-23.35 289.62 0 286.67 0ZM306.57 0.45Q296.47 0.45 296.47-11.55L296.47-11.55Q296.47-17.3 299.04-20.55 301.62-23.8 306.57-23.8L306.57-23.8Q310.67-23.8 312.87-21.35 315.07-18.9 315.07-14.55L315.07-14.55Q315.07-14.05 314.97-12.95L314.97-12.95 312.42-10.4 299.42-10.5Q299.52-6.35 301.29-4.28 303.07-2.2 306.72-2.2L306.72-2.2Q308.92-2.2 310.47-2.68 312.02-3.15 313.67-4.15L313.67-4.15 314.67-1.8Q312.82-0.7 310.99-0.13 309.17 0.45 306.57 0.45L306.57 0.45ZM299.37-12.75L311.97-12.95Q312.27-14.15 312.27-15.35L312.27-15.35Q312.27-18.05 310.77-19.6 309.27-21.15 306.37-21.15L306.37-21.15Q302.67-21.15 301.12-19.1 299.57-17.05 299.37-12.75L299.37-12.75ZM327.62 0.45Q323.27 0.45 319.92-1.25L319.92-1.25 320.87-3.7Q324.17-2.1 327.97-2.1L327.97-2.1Q330.57-2.1 332.42-2.7L332.42-2.7Q333.02-4.15 333.02-5.9L333.02-5.9Q333.02-7.35 332.62-8.13 332.22-8.9 331.19-9.4 330.17-9.9 328.07-10.35L328.07-10.35Q324.07-11.25 322.09-12.7 320.12-14.15 320.12-17.05L320.12-17.05Q320.12-19.9 322.19-21.85 324.27-23.8 328.47-23.8L328.47-23.8Q332.22-23.8 334.87-22.35L334.87-22.35 334.87-21.1Q334.87-19.55 334.27-17.9L334.27-17.9 332.27-17.9 331.92-21.1Q330.27-21.35 328.27-21.35L328.27-21.35Q325.42-21.35 324.22-20.48 323.02-19.6 323.02-17.6L323.02-17.6Q323.02-16.3 323.52-15.5 324.02-14.7 325.24-14.13 326.47-13.55 328.77-13L328.77-13Q331.37-12.4 332.89-11.65 334.42-10.9 335.17-9.68 335.92-8.45 335.92-6.45L335.92-6.45Q335.92-3.55 333.94-1.55 331.97 0.45 327.62 0.45L327.62 0.45Z" opacity="1" transform="matrix(1,0,0,1,0,0)" fill="#ffffff" class="wordmark-text-0" data-fill-palette-color="quaternary" id="text-0"></path></svg></g></svg></g><g transform="matrix(1,0,0,1,106.5961618913558,96.45819554219753)"><svg viewBox="0 0 182.32767621728837 17.72733926897574" height="17.72733926897574" width="182.32767621728837"><g transform="matrix(1,0,0,1,0,0)"><svg width="182.32767621728837" viewBox="2.1 -35.3 366.09999999999997 35.599999999999994" height="17.72733926897574" data-palette-color="#006f42"><path d="M14.65 0.3L14.65 0.3Q8.6 0.3 5.35-4.1 2.1-8.5 2.1-17.6L2.1-17.6Q2.1-26.7 5.35-31 8.6-35.3 14.65-35.3L14.65-35.3Q20.7-35.3 23.93-31 27.15-26.7 27.15-17.6L27.15-17.6Q27.15-8.5 23.93-4.1 20.7 0.3 14.65 0.3ZM14.65-3.5L14.65-3.5Q18.75-3.5 20.68-6.93 22.6-10.35 22.6-17.6L22.6-17.6Q22.6-24.75 20.68-28.13 18.75-31.5 14.65-31.5L14.65-31.5Q10.55-31.5 8.6-28.13 6.65-24.75 6.65-17.6L6.65-17.6Q6.65-10.35 8.6-6.93 10.55-3.5 14.65-3.5ZM35.15 0.1L34.75 0.1Q33.65 0.1 33.22-0.2 32.8-0.5 32.8-1L32.8-1 32.8-18.65Q32.8-21.75 32.55-23.18 32.3-24.6 32.3-25.1L32.3-25.1Q32.3-25.65 33.35-25.88 34.4-26.1 35.2-26.1L35.2-26.1Q35.9-26.1 36.17-25.35 36.45-24.6 36.8-22.7L36.8-22.7Q38.05-24.45 39.72-25.45 41.4-26.45 43.4-26.45L43.4-26.45Q45.15-26.45 46.65-25.75 48.15-25.05 49.07-23.55 50-22.05 50-19.6L50-19.6 50-1Q50-0.5 49.57-0.2 49.15 0.1 48.05 0.1L48.05 0.1 47.65 0.1Q46.55 0.1 46.12-0.2 45.7-0.5 45.7-1L45.7-1 45.7-18.75Q45.7-20.65 44.77-21.73 43.85-22.8 41.95-22.8L41.95-22.8Q40.65-22.8 39.6-22.18 38.55-21.55 37.92-20.73 37.3-19.9 37.1-19.3L37.1-19.3 37.1-1Q37.1-0.5 36.67-0.2 36.25 0.1 35.15 0.1L35.15 0.1ZM65.75 0.3L65.75 0.3Q60.75 0.3 58.2-2.95 55.65-6.2 55.65-12.9L55.65-12.9Q55.65-19.55 58.15-23 60.65-26.45 65.5-26.45L65.5-26.45Q69.85-26.45 72.05-23.1 74.25-19.75 74.25-13.35L74.25-13.35Q74.25-11.35 72.5-11.35L72.5-11.35 60.05-11.35Q60.2-7.2 61.6-5.25 63-3.3 66.05-3.3L66.05-3.3Q67.8-3.3 69.15-3.8 70.5-4.3 71.37-4.78 72.25-5.25 72.5-5.25L72.5-5.25Q73-5.25 73.32-4.38 73.65-3.5 73.65-2.9L73.65-2.9Q73.65-2.45 72.6-1.68 71.55-0.9 69.77-0.3 68 0.3 65.75 0.3ZM60.1-14.95L60.1-14.95 70-14.95Q70-22.85 65.35-22.85L65.35-22.85Q60.25-22.85 60.1-14.95ZM88.79 0.1L88.59 0.1Q86.59 0.1 86.59-1L86.59-1 86.59-18.65Q86.59-21.75 86.34-23.18 86.09-24.6 86.09-25.1L86.09-25.1Q86.09-25.65 87.14-25.88 88.19-26.1 88.99-26.1L88.99-26.1Q89.69-26.1 89.97-25.38 90.24-24.65 90.59-22.75L90.59-22.75Q91.89-24.5 93.59-25.48 95.29-26.45 96.84-26.45L96.84-26.45Q97.69-26.45 97.99-26.05 98.29-25.65 98.29-24.85L98.29-24.85Q98.29-23.75 97.99-22.93 97.69-22.1 97.24-22.1L97.24-22.1Q96.89-22.1 96.42-22.23 95.94-22.35 94.99-22.35L94.99-22.35Q93.59-22.35 92.44-21.48 91.29-20.6 90.89-19.3L90.89-19.3 90.89-1Q90.89 0.1 88.79 0.1L88.79 0.1ZM110.04 0.3L110.04 0.3Q105.04 0.3 102.49-2.95 99.94-6.2 99.94-12.9L99.94-12.9Q99.94-19.55 102.44-23 104.94-26.45 109.79-26.45L109.79-26.45Q114.14-26.45 116.34-23.1 118.54-19.75 118.54-13.35L118.54-13.35Q118.54-11.35 116.79-11.35L116.79-11.35 104.34-11.35Q104.49-7.2 105.89-5.25 107.29-3.3 110.34-3.3L110.34-3.3Q112.09-3.3 113.44-3.8 114.79-4.3 115.66-4.78 116.54-5.25 116.79-5.25L116.79-5.25Q117.29-5.25 117.61-4.38 117.94-3.5 117.94-2.9L117.94-2.9Q117.94-2.45 116.89-1.68 115.84-0.9 114.06-0.3 112.29 0.3 110.04 0.3ZM104.39-14.95L104.39-14.95 114.29-14.95Q114.29-22.85 109.64-22.85L109.64-22.85Q104.54-22.85 104.39-14.95ZM131.34 0.1L129.24 0.1Q128.59 0.1 128.09-0.1 127.59-0.3 127.44-0.95L127.44-0.95 121.24-24.7Q121.19-24.9 121.16-25.08 121.14-25.25 121.14-25.4L121.14-25.4Q121.14-26.25 123.09-26.25L123.09-26.25 123.74-26.25Q124.44-26.25 124.94-26.08 125.44-25.9 125.54-25.45L125.54-25.45 130.34-4.4 130.54-4.4 135.14-25.45Q135.24-25.9 135.76-26.08 136.29-26.25 136.99-26.25L136.99-26.25 137.59-26.25Q139.39-26.25 139.39-25.4L139.39-25.4Q139.39-25.25 139.39-25.1 139.39-24.95 139.29-24.7L139.29-24.7 133.09-0.95Q132.94-0.3 132.46-0.1 131.99 0.1 131.34 0.1L131.34 0.1ZM146.48 0.1L146.08 0.1Q144.98 0.1 144.56-0.2 144.13-0.5 144.13-1L144.13-1 144.13-25.15Q144.13-25.7 144.56-25.98 144.98-26.25 146.08-26.25L146.08-26.25 146.48-26.25Q147.58-26.25 148.01-25.98 148.43-25.7 148.43-25.15L148.43-25.15 148.43-1Q148.43-0.5 148.01-0.2 147.58 0.1 146.48 0.1L146.48 0.1ZM146.28-29.75L146.28-29.75Q145.08-29.75 144.58-30.05 144.08-30.35 144.08-30.85L144.08-30.85 144.08-33.85Q144.08-34.35 144.58-34.65 145.08-34.95 146.28-34.95L146.28-34.95Q147.48-34.95 147.98-34.68 148.48-34.4 148.48-33.85L148.48-33.85 148.48-30.85Q148.48-30.35 147.98-30.05 147.48-29.75 146.28-29.75ZM164.33 0.3L164.33 0.3Q159.33 0.3 156.78-2.95 154.23-6.2 154.23-12.9L154.23-12.9Q154.23-19.55 156.73-23 159.23-26.45 164.08-26.45L164.08-26.45Q168.43-26.45 170.63-23.1 172.83-19.75 172.83-13.35L172.83-13.35Q172.83-11.35 171.08-11.35L171.08-11.35 158.63-11.35Q158.78-7.2 160.18-5.25 161.58-3.3 164.63-3.3L164.63-3.3Q166.38-3.3 167.73-3.8 169.08-4.3 169.96-4.78 170.83-5.25 171.08-5.25L171.08-5.25Q171.58-5.25 171.91-4.38 172.23-3.5 172.23-2.9L172.23-2.9Q172.23-2.45 171.18-1.68 170.13-0.9 168.36-0.3 166.58 0.3 164.33 0.3ZM158.68-14.95L158.68-14.95 168.58-14.95Q168.58-22.85 163.93-22.85L163.93-22.85Q158.83-22.85 158.68-14.95ZM184.23 0.1L182.13 0.1Q181.48 0.1 180.98-0.1 180.48-0.3 180.33-0.95L180.33-0.95 175.18-24.4Q175.03-25.25 175.03-25.4L175.03-25.4Q175.03-26.25 176.98-26.25L176.98-26.25 177.63-26.25Q178.33-26.25 178.85-26.08 179.38-25.9 179.43-25.45L179.43-25.45 183.18-4.4 183.48-4.4 186.98-25.4Q187.08-25.9 187.55-26.08 188.03-26.25 188.73-26.25L188.73-26.25 189.68-26.25Q190.43-26.25 190.93-26.08 191.43-25.9 191.48-25.4L191.48-25.4 195.18-4.4 195.48-4.4 199.03-25.45Q199.13-25.9 199.65-26.08 200.18-26.25 200.88-26.25L200.88-26.25 201.48-26.25Q203.28-26.25 203.28-25.4L203.28-25.4Q203.28-25.25 203.25-25.1 203.23-24.95 203.18-24.7L203.18-24.7 197.98-0.95Q197.83-0.3 197.35-0.1 196.88 0.1 196.23 0.1L196.23 0.1 194.38 0.1Q193.73 0.1 193.18-0.1 192.63-0.3 192.53-0.95L192.53-0.95 189.33-18.75 189.13-18.75 185.98-0.95Q185.88-0.3 185.38-0.1 184.88 0.1 184.23 0.1L184.23 0.1ZM219.97 0.3L219.97 0.3Q216.77 0.3 214.85-1.68 212.92-3.65 212.92-7.45L212.92-7.45Q212.92-10.45 214.15-12.28 215.37-14.1 217.35-15.03 219.32-15.95 221.67-16.25 224.02-16.55 226.27-16.55L226.27-16.55 226.27-18.95Q226.27-20.5 225.35-21.68 224.42-22.85 222.02-22.85L222.02-22.85Q220.17-22.85 218.65-22.45 217.12-22.05 216.17-21.63 215.22-21.2 214.92-21.2L214.92-21.2Q214.42-21.2 214.12-22.15 213.82-23.1 213.82-23.7L213.82-23.7Q213.82-24.15 215.07-24.8 216.32-25.45 218.22-25.95 220.12-26.45 222.07-26.45L222.07-26.45Q226.07-26.45 228.32-24.45 230.57-22.45 230.57-18.9L230.57-18.9 230.57-7.4Q230.57-4.35 230.82-2.93 231.07-1.5 231.07-1.15L231.07-1.15Q231.07-0.55 230.02-0.25 228.97 0.05 228.17 0.05L228.17 0.05Q227.52 0.05 227.25-0.68 226.97-1.4 226.62-3.15L226.62-3.15Q225.37-1.55 223.75-0.63 222.12 0.3 219.97 0.3ZM220.77-3.25L220.77-3.25Q222.52-3.25 223.9-4.1 225.27-4.95 226.27-6.5L226.27-6.5 226.27-13Q221.37-13 219.35-11.88 217.32-10.75 217.32-7.5L217.32-7.5Q217.32-3.25 220.77-3.25ZM243.77 0.3L243.77 0.3Q242.72 0.3 241.42-0.15 240.12-0.6 239.2-1.93 238.27-3.25 238.27-5.8L238.27-5.8 238.27-22.55 236.27-22.55Q235.27-22.55 235.27-24.05L235.27-24.05 235.27-24.65Q235.27-26.15 236.27-26.15L236.27-26.15 238.27-26.15 238.87-31.4Q239.02-32.5 240.42-32.5L240.42-32.5 240.82-32.5Q241.82-32.5 242.2-32.23 242.57-31.95 242.57-31.4L242.57-31.4 242.57-26.15 245.92-26.15Q246.92-26.15 246.92-24.65L246.92-24.65 246.92-24.05Q246.92-22.55 245.92-22.55L245.92-22.55 242.57-22.55 242.57-6.3Q242.57-4.55 242.95-3.93 243.32-3.3 244.42-3.3L244.42-3.3Q245.32-3.3 245.75-3.43 246.17-3.55 246.42-3.55L246.42-3.55Q246.77-3.55 246.95-3.05 247.12-2.55 247.17-1.98 247.22-1.4 247.22-1.15L247.22-1.15Q247.22-0.65 246.62-0.33 246.02 0 245.22 0.15 244.42 0.3 243.77 0.3ZM264.47 0.3L264.47 0.3Q261.27 0.3 259.34-1.68 257.42-3.65 257.42-7.45L257.42-7.45Q257.42-10.45 258.64-12.28 259.87-14.1 261.84-15.03 263.81-15.95 266.17-16.25 268.52-16.55 270.77-16.55L270.77-16.55 270.77-18.95Q270.77-20.5 269.84-21.68 268.92-22.85 266.52-22.85L266.52-22.85Q264.67-22.85 263.14-22.45 261.62-22.05 260.67-21.63 259.72-21.2 259.42-21.2L259.42-21.2Q258.92-21.2 258.62-22.15 258.31-23.1 258.31-23.7L258.31-23.7Q258.31-24.15 259.56-24.8 260.81-25.45 262.72-25.95 264.62-26.45 266.56-26.45L266.56-26.45Q270.56-26.45 272.81-24.45 275.06-22.45 275.06-18.9L275.06-18.9 275.06-7.4Q275.06-4.35 275.31-2.93 275.56-1.5 275.56-1.15L275.56-1.15Q275.56-0.55 274.52-0.25 273.47 0.05 272.67 0.05L272.67 0.05Q272.02 0.05 271.74-0.68 271.47-1.4 271.12-3.15L271.12-3.15Q269.87-1.55 268.24-0.63 266.62 0.3 264.47 0.3ZM265.27-3.25L265.27-3.25Q267.02-3.25 268.39-4.1 269.77-4.95 270.77-6.5L270.77-6.5 270.77-13Q265.87-13 263.84-11.88 261.81-10.75 261.81-7.5L261.81-7.5Q261.81-3.25 265.27-3.25ZM295.11 0.3L295.11 0.3Q294.06 0.3 292.76-0.15 291.46-0.6 290.54-1.93 289.61-3.25 289.61-5.8L289.61-5.8 289.61-22.55 287.61-22.55Q286.61-22.55 286.61-24.05L286.61-24.05 286.61-24.65Q286.61-26.15 287.61-26.15L287.61-26.15 289.61-26.15 290.21-31.4Q290.36-32.5 291.76-32.5L291.76-32.5 292.16-32.5Q293.16-32.5 293.54-32.23 293.91-31.95 293.91-31.4L293.91-31.4 293.91-26.15 297.26-26.15Q298.26-26.15 298.26-24.65L298.26-24.65 298.26-24.05Q298.26-22.55 297.26-22.55L297.26-22.55 293.91-22.55 293.91-6.3Q293.91-4.55 294.29-3.93 294.66-3.3 295.76-3.3L295.76-3.3Q296.66-3.3 297.09-3.43 297.51-3.55 297.76-3.55L297.76-3.55Q298.11-3.55 298.29-3.05 298.46-2.55 298.51-1.98 298.56-1.4 298.56-1.15L298.56-1.15Q298.56-0.65 297.96-0.33 297.36 0 296.56 0.15 295.76 0.3 295.11 0.3ZM305.86 0.1L305.46 0.1Q304.36 0.1 303.93-0.2 303.51-0.5 303.51-1L303.51-1 303.51-25.15Q303.51-25.7 303.93-25.98 304.36-26.25 305.46-26.25L305.46-26.25 305.86-26.25Q306.96-26.25 307.38-25.98 307.81-25.7 307.81-25.15L307.81-25.15 307.81-1Q307.81-0.5 307.38-0.2 306.96 0.1 305.86 0.1L305.86 0.1ZM305.66-29.75L305.66-29.75Q304.46-29.75 303.96-30.05 303.46-30.35 303.46-30.85L303.46-30.85 303.46-33.85Q303.46-34.35 303.96-34.65 304.46-34.95 305.66-34.95L305.66-34.95Q306.86-34.95 307.36-34.68 307.86-34.4 307.86-33.85L307.86-33.85 307.86-30.85Q307.86-30.35 307.36-30.05 306.86-29.75 305.66-29.75ZM317.36 0.1L316.96 0.1Q315.86 0.1 315.43-0.2 315.01-0.5 315.01-1L315.01-1 315.01-18.65Q315.01-21.75 314.76-23.18 314.51-24.6 314.51-25.1L314.51-25.1Q314.51-25.65 315.56-25.88 316.61-26.1 317.41-26.1L317.41-26.1Q318.11-26.1 318.38-25.35 318.66-24.6 319.01-22.7L319.01-22.7Q320.21-24.45 321.81-25.45 323.41-26.45 325.36-26.45L325.36-26.45Q327.11-26.45 328.81-25.55 330.51-24.65 331.21-22.45L331.21-22.45Q332.36-24.25 334.01-25.35 335.66-26.45 337.66-26.45L337.66-26.45Q339.31-26.45 340.76-25.75 342.21-25.05 343.08-23.55 343.96-22.05 343.96-19.6L343.96-19.6 343.96-1Q343.96-0.5 343.53-0.2 343.11 0.1 342.01 0.1L342.01 0.1 341.61 0.1Q340.51 0.1 340.08-0.2 339.66-0.5 339.66-1L339.66-1 339.66-18.75Q339.66-20.65 338.81-21.73 337.96-22.8 336.21-22.8L336.21-22.8Q334.51-22.8 333.28-21.58 332.06-20.35 331.61-19.15L331.61-19.15Q331.61-19 331.61-18.82 331.61-18.65 331.61-18.5L331.61-18.5 331.61-1Q331.61-0.5 331.18-0.2 330.76 0.1 329.66 0.1L329.66 0.1 329.26 0.1Q328.16 0.1 327.73-0.2 327.31-0.5 327.31-1L327.31-1 327.31-18.75Q327.31-20.65 326.48-21.73 325.66-22.8 323.91-22.8L323.91-22.8Q322.66-22.8 321.68-22.18 320.71-21.55 320.11-20.73 319.51-19.9 319.31-19.3L319.31-19.3 319.31-1Q319.31-0.5 318.88-0.2 318.46 0.1 317.36 0.1L317.36 0.1ZM359.7 0.3L359.7 0.3Q354.7 0.3 352.15-2.95 349.6-6.2 349.6-12.9L349.6-12.9Q349.6-19.55 352.1-23 354.6-26.45 359.45-26.45L359.45-26.45Q363.8-26.45 366-23.1 368.2-19.75 368.2-13.35L368.2-13.35Q368.2-11.35 366.45-11.35L366.45-11.35 354-11.35Q354.15-7.2 355.55-5.25 356.95-3.3 360-3.3L360-3.3Q361.75-3.3 363.1-3.8 364.45-4.3 365.33-4.78 366.2-5.25 366.45-5.25L366.45-5.25Q366.95-5.25 367.28-4.38 367.6-3.5 367.6-2.9L367.6-2.9Q367.6-2.45 366.55-1.68 365.5-0.9 363.73-0.3 361.95 0.3 359.7 0.3ZM354.05-14.95L354.05-14.95 363.95-14.95Q363.95-22.85 359.3-22.85L359.3-22.85Q354.2-22.85 354.05-14.95Z" opacity="1" transform="matrix(1,0,0,1,0,0)" fill="#006f42" class="slogan-text-1" data-fill-palette-color="secondary" id="text-1"></path></svg></g></svg></g></svg></g></svg></g><g></g></svg></g><defs></defs></svg><rect width="395.52" height="114.18553481117327" fill="none" stroke="none" visibility="hidden"></rect></g></svg></g></svg>